<svg class="rich-terminal" viewBox="0 0 1922 977.1999999999999" xmlns="http://www.w3.org/2000/svg">
    <!-- Generated with Rich https://www.textualize.io -->
    <style>

    @font-face {
        font-family: "Fira Code";
        src: local("FiraCode-Regular"),
                url("https://cdnjs.cloudflare.com/ajax/libs/firacode/6.2.0/woff2/FiraCode-Regular.woff2") format("woff2"),
                url("https://cdnjs.cloudflare.com/ajax/libs/firacode/6.2.0/woff/FiraCode-Regular.woff") format("woff");
        font-style: normal;
        font-weight: 400;
    }
    @font-face {
        font-family: "Fira Code";
        src: local("FiraCode-Bold"),
                url("https://cdnjs.cloudflare.com/ajax/libs/firacode/6.2.0/woff2/FiraCode-Bold.woff2") format("woff2"),
                url("https://cdnjs.cloudflare.com/ajax/libs/firacode/6.2.0/woff/FiraCode-Bold.woff") format("woff");
        font-style: bold;
        font-weight: 700;
    }

    .terminal-2359095086-matrix {
        font-family: Fira Code, monospace;
        font-size: 20px;
        line-height: 24.4px;
        font-variant-east-asian: full-width;
    }

    .terminal-2359095086-title {
        font-size: 18px;
        font-weight: bold;
        font-family: arial;
    }

    .terminal-2359095086-r1 { fill: #c5c8c6 }
.terminal-2359095086-r2 { fill: #fbf1c7 }
.terminal-2359095086-r3 { fill: #c0b79a }
.terminal-2359095086-r4 { fill: #cba6f7 }
.terminal-2359095086-r5 { fill: #b1afae }
.terminal-2359095086-r6 { fill: #3c3836 }
.terminal-2359095086-r7 { fill: #85a598 }
.terminal-2359095086-r8 { fill: #282828 }
.terminal-2359095086-r9 { fill: #8b8986 }
.terminal-2359095086-r10 { fill: #f9bd2f }
.terminal-2359095086-r11 { fill: #fabd2f;font-weight: bold }
.terminal-2359095086-r12 { fill: #726a5f }
    </style>

    <defs>
    <clipPath id="terminal-2359095086-clip-terminal">
      <rect x="0" y="0" width="1902.1999999999998" height="926.1999999999999" />
    </clipPath>
    <clipPath id="terminal-2359095086-line-0">
    <rect x="0" y="1.5" width="1903.2" height="24.65"/>
            </clipPath>
<clipPath id="terminal-2359095086-line-1">
    <rect x="0" y="25.9" width="1903.2" height="24.65"/>
            </clipPath>
<clipPath id="terminal-2359095086-line-2">
    <rect x="0" y="50.3" width="1903.2" height="24.65"/>
            </clipPath>
<clipPath id="terminal-2359095086-line-3">
    <rect x="0" y="74.7" width="1903.2" height="24.65"/>
            </clipPath>
<clipPath id="terminal-2359095086-line-4">
    <rect x="0" y="99.1" width="1903.2" height="24.65"/>
            </clipPath>
<clipPath id="terminal-2359095086-line-5">
    <rect x="0" y="123.5" width="1903.2" height="24.65"/>
            </clipPath>
<clipPath id="terminal-2359095086-line-6">
    <rect x="0" y="147.9" width="1903.2" height="24.65"/>
            </clipPath>
<clipPath id="terminal-2359095086-line-7">
    <rect x="0" y="172.3" width="1903.2" height="24.65"/>
            </clipPath>
<clipPath id="terminal-2359095086-line-8">
    <rect x="0" y="196.7" width="1903.2" height="24.65"/>
            </clipPath>
<clipPath id="terminal-2359095086-line-9">
    <rect x="0" y="221.1" width="1903.2" height="24.65"/>
            </clipPath>
<clipPath id="terminal-2359095086-line-10">
    <rect x="0" y="245.5" width="1903.2" height="24.65"/>
            </clipPath>
<clipPath id="terminal-2359095086-line-11">
    <rect x="0" y="269.9" width="1903.2" height="24.65"/>
            </clipPath>
<clipPath id="terminal-2359095086-line-12">
    <rect x="0" y="294.3" width="1903.2" height="24.65"/>
            </clipPath>
<clipPath id="terminal-2359095086-line-13">
    <rect x="0" y="318.7" width="1903.2" height="24.65"/>
            </clipPath>
<clipPath id="terminal-2359095086-line-14">
    <rect x="0" y="343.1" width="1903.2" height="24.65"/>
            </clipPath>
<clipPath id="terminal-2359095086-line-15">
    <rect x="0" y="367.5" width="1903.2" height="24.65"/>
            </clipPath>
<clipPath id="terminal-2359095086-line-16">
    <rect x="0" y="391.9" width="1903.2" height="24.65"/>
            </clipPath>
<clipPath id="terminal-2359095086-line-17">
    <rect x="0" y="416.3" width="1903.2" height="24.65"/>
            </clipPath>
<clipPath id="terminal-2359095086-line-18">
    <rect x="0" y="440.7" width="1903.2" height="24.65"/>
            </clipPath>
<clipPath id="terminal-2359095086-line-19">
    <rect x="0" y="465.1" width="1903.2" height="24.65"/>
            </clipPath>
<clipPath id="terminal-2359095086-line-20">
    <rect x="0" y="489.5" width="1903.2" height="24.65"/>
            </clipPath>
<clipPath id="terminal-2359095086-line-21">
    <rect x="0" y="513.9" width="1903.2" height="24.65"/>
            </clipPath>
<clipPath id="terminal-2359095086-line-22">
    <rect x="0" y="538.3" width="1903.2" height="24.65"/>
            </clipPath>
<clipPath id="terminal-2359095086-line-23">
    <rect x="0" y="562.7" width="1903.2" height="24.65"/>
            </clipPath>
<clipPath id="terminal-2359095086-line-24">
    <rect x="0" y="587.1" width="1903.2" height="24.65"/>
            </clipPath>
<clipPath id="terminal-2359095086-line-25">
    <rect x="0" y="611.5" width="1903.2" height="24.65"/>
            </clipPath>
<clipPath id="terminal-2359095086-line-26">
    <rect x="0" y="635.9" width="1903.2" height="24.65"/>
            </clipPath>
<clipPath id="terminal-2359095086-line-27">
    <rect x="0" y="660.3" width="1903.2" height="24.65"/>
            </clipPath>
<clipPath id="terminal-2359095086-line-28">
    <rect x="0" y="684.7" width="1903.2" height="24.65"/>
            </clipPath>
<clipPath id="terminal-2359095086-line-29">
    <rect x="0" y="709.1" width="1903.2" height="24.65"/>
            </clipPath>
<clipPath id="terminal-2359095086-line-30">
    <rect x="0" y="733.5" width="1903.2" height="24.65"/>
            </clipPath>
<clipPath id="terminal-2359095086-line-31">
    <rect x="0" y="757.9" width="1903.2" height="24.65"/>
            </clipPath>
<clipPath id="terminal-2359095086-line-32">
    <rect x="0" y="782.3" width="1903.2" height="24.65"/>
            </clipPath>
<clipPath id="terminal-2359095086-line-33">
    <rect x="0" y="806.7" width="1903.2" height="24.65"/>
            </clipPath>
<clipPath id="terminal-2359095086-line-34">
    <rect x="0" y="831.1" width="1903.2" height="24.65"/>
            </clipPath>
<clipPath id="terminal-2359095086-line-35">
    <rect x="0" y="855.5" width="1903.2" height="24.65"/>
            </clipPath>
<clipPath id="terminal-2359095086-line-36">
    <rect x="0" y="879.9" width="1903.2" height="24.65"/>
            </clipPath>
    </defs>

    <rect fill="#292929" stroke="rgba(255,255,255,0.35)" stroke-width="1" x="1" y="1" width="1920" height="975.2" rx="8"/><text class="terminal-2359095086-title" fill="#c5c8c6" text-anchor="middle" x="960" y="27">PaperProbe</text>
            <g transform="translate(26,22)">
            <circle cx="0" cy="0" r="7" fill="#ff5f57"/>
            <circle cx="22" cy="0" r="7" fill="#febc2e"/>
            <circle cx="44" cy="0" r="7" fill="#28c840"/>
            </g>
        
    <g transform="translate(9, 41)" clip-path="url(#terminal-2359095086-clip-terminal)">
    <rect fill="#504945" x="0" y="1.5" width="12.2" height="24.65" shape-rendering="crispEdges"/><rect fill="#504945" x="12.2" y="1.5" width="12.2" height="24.65" shape-rendering="crispEdges"/><rect fill="#504945" x="24.4" y="1.5" width="61" height="24.65" shape-rendering="crispEdges"/><rect fill="#504945" x="85.4" y="1.5" width="12.2" height="24.65" shape-rendering="crispEdges"/><rect fill="#504945" x="97.6" y="1.5" width="366" height="24.65" shape-rendering="crispEdges"/><rect fill="#504945" x="463.6" y="1.5" width="122" height="24.65" shape-rendering="crispEdges"/><rect fill="#504945" x="585.6" y="1.5" width="36.6" height="24.65" shape-rendering="crispEdges"/><rect fill="#504945" x="622.2" y="1.5" width="780.8" height="24.65" shape-rendering="crispEdges"/><rect fill="#504945" x="1403" y="1.5" width="378.2" height="24.65" shape-rendering="crispEdges"/><rect fill="#504945" x="1781.2" y="1.5" width="12.2" height="24.65" shape-rendering="crispEdges"/><rect fill="#504945" x="1793.4" y="1.5" width="0" height="24.65" shape-rendering="crispEdges"/><rect fill="#504945" x="1793.4" y="1.5" width="97.6" height="24.65" shape-rendering="crispEdges"/><rect fill="#504945" x="1891" y="1.5" width="12.2" height="24.65" shape-rendering="crispEdges"/><rect fill="#3c3836" x="0" y="25.9" width="1903.2" height="24.65" shape-rendering="crispEdges"/><rect fill="#3c3836" x="0" y="50.3" width="24.4" height="24.65" shape-rendering="crispEdges"/><rect fill="#3c3836" x="24.4" y="50.3" width="927.2" height="24.65" shape-rendering="crispEdges"/><rect fill="#3c3836" x="951.6" y="50.3" width="0" height="24.65" shape-rendering="crispEdges"/><rect fill="#3c3836" x="951.6" y="50.3" width="927.2" height="24.65" shape-rendering="crispEdges"/><rect fill="#3c3836" x="1878.8" y="50.3" width="24.4" height="24.65" shape-rendering="crispEdges"/><rect fill="#3c3836" x="0" y="74.7" width="24.4" height="24.65" shape-rendering="crispEdges"/><rect fill="#3c3836" x="24.4" y="74.7" width="683.2" height="24.65" shape-rendering="crispEdges"/><rect fill="#3c3836" x="707.6" y="74.7" width="488" height="24.65" shape-rendering="crispEdges"/><rect fill="#3c3836" x="1195.6" y="74.7" width="683.2" height="24.65" shape-rendering="crispEdges"/><rect fill="#3c3836" x="1878.8" y="74.7" width="24.4" height="24.65" shape-rendering="crispEdges"/><rect fill="#3c3836" x="0" y="99.1" width="24.4" height="24.65" shape-rendering="crispEdges"/><rect fill="#3c3836" x="24.4" y="99.1" width="683.2" height="24.65" shape-rendering="crispEdges"/><rect fill="#3c3836" x="707.6" y="99.1" width="488" height="24.65" shape-rendering="crispEdges"/><rect fill="#3c3836" x="1195.6" y="99.1" width="683.2" height="24.65" shape-rendering="crispEdges"/><rect fill="#3c3836" x="1878.8" y="99.1" width="24.4" height="24.65" shape-rendering="crispEdges"/><rect fill="#3c3836" x="0" y="123.5" width="24.4" height="24.65" shape-rendering="crispEdges"/><rect fill="#3c3836" x="24.4" y="123.5" width="683.2" height="24.65" shape-rendering="crispEdges"/><rect fill="#3c3836" x="707.6" y="123.5" width="488" height="24.65" shape-rendering="crispEdges"/><rect fill="#3c3836" x="1195.6" y="123.5" width="683.2" height="24.65" shape-rendering="crispEdges"/><rect fill="#3c3836" x="1878.8" y="123.5" width="24.4" height="24.65" shape-rendering="crispEdges"/><rect fill="#3c3836" x="0" y="147.9" width="24.4" height="24.65" shape-rendering="crispEdges"/><rect fill="#3c3836" x="24.4" y="147.9" width="683.2" height="24.65" shape-rendering="crispEdges"/><rect fill="#3c3836" x="707.6" y="147.9" width="488" height="24.65" shape-rendering="crispEdges"/><rect fill="#3c3836" x="1195.6" y="147.9" width="683.2" height="24.65" shape-rendering="crispEdges"/><rect fill="#3c3836" x="1878.8" y="147.9" width="24.4" height="24.65" shape-rendering="crispEdges"/><rect fill="#3c3836" x="0" y="172.3" width="24.4" height="24.65" shape-rendering="crispEdges"/><rect fill="#3c3836" x="24.4" y="172.3" width="683.2" height="24.65" shape-rendering="crispEdges"/><rect fill="#3c3836" x="707.6" y="172.3" width="488" height="24.65" shape-rendering="crispEdges"/><rect fill="#3c3836" x="1195.6" y="172.3" width="683.2" height="24.65" shape-rendering="crispEdges"/><rect fill="#3c3836" x="1878.8" y="172.3" width="24.4" height="24.65" shape-rendering="crispEdges"/><rect fill="#3c3836" x="0" y="196.7" width="24.4" height="24.65" shape-rendering="crispEdges"/><rect fill="#3c3836" x="24.4" y="196.7" width="683.2" height="24.65" shape-rendering="crispEdges"/><rect fill="#3c3836" x="707.6" y="196.7" width="488" height="24.65" shape-rendering="crispEdges"/><rect fill="#3c3836" x="1195.6" y="196.7" width="683.2" height="24.65" shape-rendering="crispEdges"/><rect fill="#3c3836" x="1878.8" y="196.7" width="24.4" height="24.65" shape-rendering="crispEdges"/><rect fill="#3c3836" x="0" y="221.1" width="24.4" height="24.65" shape-rendering="crispEdges"/><rect fill="#3c3836" x="24.4" y="221.1" width="671" height="24.65" shape-rendering="crispEdges"/><rect fill="#3c3836" x="695.4" y="221.1" width="500.2" height="24.65" shape-rendering="crispEdges"/><rect fill="#3c3836" x="1195.6" y="221.1" width="683.2" height="24.65" shape-rendering="crispEdges"/><rect fill="#3c3836" x="1878.8" y="221.1" width="24.4" height="24.65" shape-rendering="crispEdges"/><rect fill="#3c3836" x="0" y="245.5" width="24.4" height="24.65" shape-rendering="crispEdges"/><rect fill="#3c3836" x="24.4" y="245.5" width="671" height="24.65" shape-rendering="crispEdges"/><rect fill="#3c3836" x="695.4" y="245.5" width="500.2" height="24.65" shape-rendering="crispEdges"/><rect fill="#3c3836" x="1195.6" y="245.5" width="683.2" height="24.65" shape-rendering="crispEdges"/><rect fill="#3c3836" x="1878.8" y="245.5" width="24.4" height="24.65" shape-rendering="crispEdges"/><rect fill="#3c3836" x="0" y="269.9" width="24.4" height="24.65" shape-rendering="crispEdges"/><rect fill="#3c3836" x="24.4" y="269.9" width="671" height="24.65" shape-rendering="crispEdges"/><rect fill="#3c3836" x="695.4" y="269.9" width="500.2" height="24.65" shape-rendering="crispEdges"/><rect fill="#3c3836" x="1195.6" y="269.9" width="683.2" height="24.65" shape-rendering="crispEdges"/><rect fill="#3c3836" x="1878.8" y="269.9" width="24.4" height="24.65" shape-rendering="crispEdges"/><rect fill="#3c3836" x="0" y="294.3" width="24.4" height="24.65" shape-rendering="crispEdges"/><rect fill="#3c3836" x="24.4" y="294.3" width="671" height="24.65" shape-rendering="crispEdges"/><rect fill="#3c3836" x="695.4" y="294.3" width="500.2" height="24.65" shape-rendering="crispEdges"/><rect fill="#3c3836" x="1195.6" y="294.3" width="683.2" height="24.65" shape-rendering="crispEdges"/><rect fill="#3c3836" x="1878.8" y="294.3" width="24.4" height="24.65" shape-rendering="crispEdges"/><rect fill="#3c3836" x="0" y="318.7" width="24.4" height="24.65" shape-rendering="crispEdges"/><rect fill="#3c3836" x="24.4" y="318.7" width="671" height="24.65" shape-rendering="crispEdges"/><rect fill="#3c3836" x="695.4" y="318.7" width="500.2" height="24.65" shape-rendering="crispEdges"/><rect fill="#3c3836" x="1195.6" y="318.7" width="683.2" height="24.65" shape-rendering="crispEdges"/><rect fill="#3c3836" x="1878.8" y="318.7" width="24.4" height="24.65" shape-rendering="crispEdges"/><rect fill="#3c3836" x="0" y="343.1" width="24.4" height="24.65" shape-rendering="crispEdges"/><rect fill="#3c3836" x="24.4" y="343.1" width="671" height="24.65" shape-rendering="crispEdges"/><rect fill="#3c3836" x="695.4" y="343.1" width="500.2" height="24.65" shape-rendering="crispEdges"/><rect fill="#3c3836" x="1195.6" y="343.1" width="683.2" height="24.65" shape-rendering="crispEdges"/><rect fill="#3c3836" x="1878.8" y="343.1" width="24.4" height="24.65" shape-rendering="crispEdges"/><rect fill="#3c3836" x="0" y="367.5" width="24.4" height="24.65" shape-rendering="crispEdges"/><rect fill="#3c3836" x="24.4" y="367.5" width="927.2" height="24.65" shape-rendering="crispEdges"/><rect fill="#3c3836" x="951.6" y="367.5" width="0" height="24.65" shape-rendering="crispEdges"/><rect fill="#3c3836" x="951.6" y="367.5" width="927.2" height="24.65" shape-rendering="crispEdges"/><rect fill="#3c3836" x="1878.8" y="367.5" width="24.4" height="24.65" shape-rendering="crispEdges"/><rect fill="#3c3836" x="0" y="391.9" width="1903.2" height="24.65" shape-rendering="crispEdges"/><rect fill="#3c3836" x="0" y="416.3" width="1903.2" height="24.65" shape-rendering="crispEdges"/><rect fill="#3c3836" x="0" y="440.7" width="24.4" height="24.65" shape-rendering="crispEdges"/><rect fill="#3c3836" x="24.4" y="440.7" width="561.2" height="24.65" shape-rendering="crispEdges"/><rect fill="#3c3836" x="585.6" y="440.7" width="719.8" height="24.65" shape-rendering="crispEdges"/><rect fill="#3c3836" x="1305.4" y="440.7" width="573.4" height="24.65" shape-rendering="crispEdges"/><rect fill="#3c3836" x="1878.8" y="440.7" width="24.4" height="24.65" shape-rendering="crispEdges"/><rect fill="#3c3836" x="0" y="465.1" width="1903.2" height="24.65" shape-rendering="crispEdges"/><rect fill="#85a598" x="0" y="489.5" width="12.2" height="24.65" shape-rendering="crispEdges"/><rect fill="#45413d" x="12.2" y="489.5" width="1878.8" height="24.65" shape-rendering="crispEdges"/><rect fill="#3c3836" x="1891" y="489.5" width="12.2" height="24.65" shape-rendering="crispEdges"/><rect fill="#85a598" x="0" y="513.9" width="12.2" height="24.65" shape-rendering="crispEdges"/><rect fill="#45413d" x="12.2" y="513.9" width="12.2" height="24.65" shape-rendering="crispEdges"/><rect fill="#fbf1c7" x="24.4" y="513.9" width="12.2" height="24.65" shape-rendering="crispEdges"/><rect fill="#45413d" x="36.6" y="513.9" width="866.2" height="24.65" shape-rendering="crispEdges"/><rect fill="#45413d" x="902.8" y="513.9" width="976" height="24.65" shape-rendering="crispEdges"/><rect fill="#45413d" x="1878.8" y="513.9" width="12.2" height="24.65" shape-rendering="crispEdges"/><rect fill="#3c3836" x="1891" y="513.9" width="12.2" height="24.65" shape-rendering="crispEdges"/><rect fill="#85a598" x="0" y="538.3" width="12.2" height="24.65" shape-rendering="crispEdges"/><rect fill="#45413d" x="12.2" y="538.3" width="1878.8" height="24.65" shape-rendering="crispEdges"/><rect fill="#3c3836" x="1891" y="538.3" width="12.2" height="24.65" shape-rendering="crispEdges"/><rect fill="#3c3836" x="0" y="562.7" width="1903.2" height="24.65" shape-rendering="crispEdges"/><rect fill="#3c3836" x="0" y="587.1" width="24.4" height="24.65" shape-rendering="crispEdges"/><rect fill="#3c3836" x="24.4" y="587.1" width="805.2" height="24.65" shape-rendering="crispEdges"/><rect fill="#3c3836" x="829.6" y="587.1" width="1049.2" height="24.65" shape-rendering="crispEdges"/><rect fill="#3c3836" x="1878.8" y="587.1" width="24.4" height="24.65" shape-rendering="crispEdges"/><rect fill="#3c3836" x="0" y="611.5" width="1903.2" height="24.65" shape-rendering="crispEdges"/><rect fill="#3c3836" x="0" y="635.9" width="1903.2" height="24.65" shape-rendering="crispEdges"/><rect fill="#3c3836" x="0" y="660.3" width="1903.2" height="24.65" shape-rendering="crispEdges"/><rect fill="#3c3836" x="0" y="684.7" width="1903.2" height="24.65" shape-rendering="crispEdges"/><rect fill="#3c3836" x="0" y="709.1" width="1903.2" height="24.65" shape-rendering="crispEdges"/><rect fill="#3c3836" x="0" y="733.5" width="1903.2" height="24.65" shape-rendering="crispEdges"/><rect fill="#3c3836" x="0" y="757.9" width="1903.2" height="24.65" shape-rendering="crispEdges"/><rect fill="#3c3836" x="0" y="782.3" width="1903.2" height="24.65" shape-rendering="crispEdges"/><rect fill="#3c3836" x="0" y="806.7" width="1903.2" height="24.65" shape-rendering="crispEdges"/><rect fill="#3c3836" x="0" y="831.1" width="1903.2" height="24.65" shape-rendering="crispEdges"/><rect fill="#3c3836" x="0" y="855.5" width="1903.2" height="24.65" shape-rendering="crispEdges"/><rect fill="#3c3836" x="0" y="879.9" width="1903.2" height="24.65" shape-rendering="crispEdges"/><rect fill="#504945" x="0" y="904.3" width="48.8" height="24.65" shape-rendering="crispEdges"/><rect fill="#504945" x="48.8" y="904.3" width="183" height="24.65" shape-rendering="crispEdges"/><rect fill="#504945" x="231.8" y="904.3" width="48.8" height="24.65" shape-rendering="crispEdges"/><rect fill="#504945" x="280.6" y="904.3" width="61" height="24.65" shape-rendering="crispEdges"/><rect fill="#504945" x="341.6" y="904.3" width="1415.2" height="24.65" shape-rendering="crispEdges"/><rect fill="#504945" x="1756.8" y="904.3" width="12.2" height="24.65" shape-rendering="crispEdges"/><rect fill="#504945" x="1769" y="904.3" width="24.4" height="24.65" shape-rendering="crispEdges"/><rect fill="#504945" x="1793.4" y="904.3" width="97.6" height="24.65" shape-rendering="crispEdges"/><rect fill="#504945" x="1891" y="904.3" width="12.2" height="24.65" shape-rendering="crispEdges"/>
    <g class="terminal-2359095086-matrix">
    <text class="terminal-2359095086-r2" x="12.2" y="20" textLength="12.2" clip-path="url(#terminal-2359095086-line-0)">⭘</text><text class="terminal-2359095086-r2" x="463.6" y="20" textLength="122" clip-path="url(#terminal-2359095086-line-0)">PaperProbe</text><text class="terminal-2359095086-r3" x="585.6" y="20" textLength="36.6" clip-path="url(#terminal-2359095086-line-0)">&#160;—&#160;</text><text class="terminal-2359095086-r3" x="622.2" y="20" textLength="780.8" clip-path="url(#terminal-2359095086-line-0)">Find&#160;source&#160;code&#160;for&#160;research&#160;papers&#160;and&#160;generate&#160;sample&#160;scripts</text><text class="terminal-2359095086-r1" x="1903.2" y="20" textLength="12.2" clip-path="url(#terminal-2359095086-line-0)">
</text><text class="terminal-2359095086-r1" x="1903.2" y="44.4" textLength="12.2" clip-path="url(#terminal-2359095086-line-1)">
</text><text class="terminal-2359095086-r1" x="1903.2" y="68.8" textLength="12.2" clip-path="url(#terminal-2359095086-line-2)">
</text><text class="terminal-2359095086-r4" x="707.6" y="93.2" textLength="488" clip-path="url(#terminal-2359095086-line-3)">██████╗&#160;&#160;█████╗&#160;██████╗&#160;███████╗██████╗&#160;</text><text class="terminal-2359095086-r1" x="1903.2" y="93.2" textLength="12.2" clip-path="url(#terminal-2359095086-line-3)">
</text><text class="terminal-2359095086-r4" x="707.6" y="117.6" textLength="488" clip-path="url(#terminal-2359095086-line-4)">██╔══██╗██╔══██╗██╔══██╗██╔════╝██╔══██╗</text><text class="terminal-2359095086-r1" x="1903.2" y="117.6" textLength="12.2" clip-path="url(#terminal-2359095086-line-4)">
</text><text class="terminal-2359095086-r4" x="707.6" y="142" textLength="488" clip-path="url(#terminal-2359095086-line-5)">██████╔╝███████║██████╔╝█████╗&#160;&#160;██████╔╝</text><text class="terminal-2359095086-r1" x="1903.2" y="142" textLength="12.2" clip-path="url(#terminal-2359095086-line-5)">
</text><text class="terminal-2359095086-r4" x="707.6" y="166.4" textLength="488" clip-path="url(#terminal-2359095086-line-6)">██╔═══╝&#160;██╔══██║██╔═══╝&#160;██╔══╝&#160;&#160;██╔══██╗</text><text class="terminal-2359095086-r1" x="1903.2" y="166.4" textLength="12.2" clip-path="url(#terminal-2359095086-line-6)">
</text><text class="terminal-2359095086-r4" x="707.6" y="190.8" textLength="488" clip-path="url(#terminal-2359095086-line-7)">██║&#160;&#160;&#160;&#160;&#160;██║&#160;&#160;██║██║&#160;&#160;&#160;&#160;&#160;███████╗██║&#160;&#160;██║</text><text class="terminal-2359095086-r1" x="1903.2" y="190.8" textLength="12.2" clip-path="url(#terminal-2359095086-line-7)">
</text><text class="terminal-2359095086-r4" x="707.6" y="215.2" textLength="488" clip-path="url(#terminal-2359095086-line-8)">╚═╝&#160;&#160;&#160;&#160;&#160;╚═╝&#160;&#160;╚═╝╚═╝&#160;&#160;&#160;&#160;&#160;╚══════╝╚═╝&#160;&#160;╚═╝</text><text class="terminal-2359095086-r1" x="1903.2" y="215.2" textLength="12.2" clip-path="url(#terminal-2359095086-line-8)">
</text><text class="terminal-2359095086-r4" x="695.4" y="239.6" textLength="500.2" clip-path="url(#terminal-2359095086-line-9)">██████╗&#160;██████╗&#160;&#160;██████╗&#160;██████╗&#160;███████╗</text><text class="terminal-2359095086-r1" x="1903.2" y="239.6" textLength="12.2" clip-path="url(#terminal-2359095086-line-9)">
</text><text class="terminal-2359095086-r4" x="695.4" y="264" textLength="500.2" clip-path="url(#terminal-2359095086-line-10)">██╔══██╗██╔══██╗██╔═══██╗██╔══██╗██╔════╝</text><text class="terminal-2359095086-r1" x="1903.2" y="264" textLength="12.2" clip-path="url(#terminal-2359095086-line-10)">
</text><text class="terminal-2359095086-r4" x="695.4" y="288.4" textLength="500.2" clip-path="url(#terminal-2359095086-line-11)">██████╔╝██████╔╝██║&#160;&#160;&#160;██║██████╔╝█████╗&#160;&#160;</text><text class="terminal-2359095086-r1" x="1903.2" y="288.4" textLength="12.2" clip-path="url(#terminal-2359095086-line-11)">
</text><text class="terminal-2359095086-r4" x="695.4" y="312.8" textLength="500.2" clip-path="url(#terminal-2359095086-line-12)">██╔═══╝&#160;██╔══██╗██║&#160;&#160;&#160;██║██╔══██╗██╔══╝&#160;&#160;</text><text class="terminal-2359095086-r1" x="1903.2" y="312.8" textLength="12.2" clip-path="url(#terminal-2359095086-line-12)">
</text><text class="terminal-2359095086-r4" x="695.4" y="337.2" textLength="500.2" clip-path="url(#terminal-2359095086-line-13)">██║&#160;&#160;&#160;&#160;&#160;██║&#160;&#160;██║╚██████╔╝██████╔╝███████╗</text><text class="terminal-2359095086-r1" x="1903.2" y="337.2" textLength="12.2" clip-path="url(#terminal-2359095086-line-13)">
</text><text class="terminal-2359095086-r4" x="695.4" y="361.6" textLength="500.2" clip-path="url(#terminal-2359095086-line-14)">╚═╝&#160;&#160;&#160;&#160;&#160;╚═╝&#160;&#160;╚═╝&#160;╚═════╝&#160;╚═════╝&#160;╚══════╝</text><text class="terminal-2359095086-r1" x="1903.2" y="361.6" textLength="12.2" clip-path="url(#terminal-2359095086-line-14)">
</text><text class="terminal-2359095086-r1" x="1903.2" y="386" textLength="12.2" clip-path="url(#terminal-2359095086-line-15)">
</text><text class="terminal-2359095086-r1" x="1903.2" y="410.4" textLength="12.2" clip-path="url(#terminal-2359095086-line-16)">
</text><text class="terminal-2359095086-r1" x="1903.2" y="434.8" textLength="12.2" clip-path="url(#terminal-2359095086-line-17)">
</text><text class="terminal-2359095086-r5" x="585.6" y="459.2" textLength="719.8" clip-path="url(#terminal-2359095086-line-18)">Paste&#160;a&#160;paper&#160;URL&#160;or&#160;local&#160;file&#160;path,&#160;or&#160;a&#160;GitHub&#160;repo&#160;URL.</text><text class="terminal-2359095086-r1" x="1903.2" y="459.2" textLength="12.2" clip-path="url(#terminal-2359095086-line-18)">
</text><text class="terminal-2359095086-r1" x="1903.2" y="483.6" textLength="12.2" clip-path="url(#terminal-2359095086-line-19)">
</text><text class="terminal-2359095086-r6" x="0" y="508" textLength="12.2" clip-path="url(#terminal-2359095086-line-20)">▊</text><text class="terminal-2359095086-r7" x="12.2" y="508" textLength="1878.8" clip-path="url(#terminal-2359095086-line-20)">▔▔▔▔▔▔▔▔▔▔▔▔▔▔▔▔▔▔▔▔▔▔▔▔▔▔▔▔▔▔▔▔▔▔▔▔▔▔▔▔▔▔▔▔▔▔▔▔▔▔▔▔▔▔▔▔▔▔▔▔▔▔▔▔▔▔▔▔▔▔▔▔▔▔▔▔▔▔▔▔▔▔▔▔▔▔▔▔▔▔▔▔▔▔▔▔▔▔▔▔▔▔▔▔▔▔▔▔▔▔▔▔▔▔▔▔▔▔▔▔▔▔▔▔▔▔▔▔▔▔▔▔▔▔▔▔▔▔▔▔▔▔▔▔▔▔▔▔▔▔▔▔▔▔</text><text class="terminal-2359095086-r7" x="1891" y="508" textLength="12.2" clip-path="url(#terminal-2359095086-line-20)">▎</text><text class="terminal-2359095086-r1" x="1903.2" y="508" textLength="12.2" clip-path="url(#terminal-2359095086-line-20)">
</text><text class="terminal-2359095086-r6" x="0" y="532.4" textLength="12.2" clip-path="url(#terminal-2359095086-line-21)">▊</text><text class="terminal-2359095086-r8" x="24.4" y="532.4" textLength="12.2" clip-path="url(#terminal-2359095086-line-21)">h</text><text class="terminal-2359095086-r9" x="36.6" y="532.4" textLength="866.2" clip-path="url(#terminal-2359095086-line-21)">ttps://arxiv.org/abs/...&#160;or&#160;/path/to/paper.pdf&#160;or&#160;https://github.com/..</text><text class="terminal-2359095086-r7" x="1891" y="532.4" textLength="12.2" clip-path="url(#terminal-2359095086-line-21)">▎</text><text class="terminal-2359095086-r1" x="1903.2" y="532.4" textLength="12.2" clip-path="url(#terminal-2359095086-line-21)">
</text><text class="terminal-2359095086-r6" x="0" y="556.8" textLength="12.2" clip-path="url(#terminal-2359095086-line-22)">▊</text><text class="terminal-2359095086-r7" x="12.2" y="556.8" textLength="1878.8" clip-path="url(#terminal-2359095086-line-22)">▁▁▁▁▁▁▁▁▁▁▁▁▁▁▁▁▁▁▁▁▁▁▁▁▁▁▁▁▁▁▁▁▁▁▁▁▁▁▁▁▁▁▁▁▁▁▁▁▁▁▁▁▁▁▁▁▁▁▁▁▁▁▁▁▁▁▁▁▁▁▁▁▁▁▁▁▁▁▁▁▁▁▁▁▁▁▁▁▁▁▁▁▁▁▁▁▁▁▁▁▁▁▁▁▁▁▁▁▁▁▁▁▁▁▁▁▁▁▁▁▁▁▁▁▁▁▁▁▁▁▁▁▁▁▁▁▁▁▁▁▁▁▁▁▁▁▁▁▁▁▁▁▁▁</text><text class="terminal-2359095086-r7" x="1891" y="556.8" textLength="12.2" clip-path="url(#terminal-2359095086-line-22)">▎</text><text class="terminal-2359095086-r1" x="1903.2" y="556.8" textLength="12.2" clip-path="url(#terminal-2359095086-line-22)">
</text><text class="terminal-2359095086-r1" x="1903.2" y="581.2" textLength="12.2" clip-path="url(#terminal-2359095086-line-23)">
</text><text class="terminal-2359095086-r10" x="24.4" y="605.6" textLength="805.2" clip-path="url(#terminal-2359095086-line-24)">Sample&#160;url&#160;populated:&#160;https://github.com/Brook-B-Nigatu/PaperProbe</text><text class="terminal-2359095086-r1" x="1903.2" y="605.6" textLength="12.2" clip-path="url(#terminal-2359095086-line-24)">
</text><text class="terminal-2359095086-r1" x="1903.2" y="630" textLength="12.2" clip-path="url(#terminal-2359095086-line-25)">
</text><text class="terminal-2359095086-r1" x="1903.2" y="654.4" textLength="12.2" clip-path="url(#terminal-2359095086-line-26)">
</text><text class="terminal-2359095086-r1" x="1903.2" y="678.8" textLength="12.2" clip-path="url(#terminal-2359095086-line-27)">
</text><text class="terminal-2359095086-r1" x="1903.2" y="703.2" textLength="12.2" clip-path="url(#terminal-2359095086-line-28)">
</text><text class="terminal-2359095086-r1" x="1903.2" y="727.6" textLength="12.2" clip-path="url(#terminal-2359095086-line-29)">
</text><text class="terminal-2359095086-r1" x="1903.2" y="752" textLength="12.2" clip-path="url(#terminal-2359095086-line-30)">
</text><text class="terminal-2359095086-r1" x="1903.2" y="776.4" textLength="12.2" clip-path="url(#terminal-2359095086-line-31)">
</text><text class="terminal-2359095086-r1" x="1903.2" y="800.8" textLength="12.2" clip-path="url(#terminal-2359095086-line-32)">
</text><text class="terminal-2359095086-r1" x="1903.2" y="825.2" textLength="12.2" clip-path="url(#terminal-2359095086-line-33)">
</text><text class="terminal-2359095086-r1" x="1903.2" y="849.6" textLength="12.2" clip-path="url(#terminal-2359095086-line-34)">
</text><text class="terminal-2359095086-r1" x="1903.2" y="874" textLength="12.2" clip-path="url(#terminal-2359095086-line-35)">
</text><text class="terminal-2359095086-r1" x="1903.2" y="898.4" textLength="12.2" clip-path="url(#terminal-2359095086-line-36)">
</text><text class="terminal-2359095086-r11" x="0" y="922.8" textLength="48.8" clip-path="url(#terminal-2359095086-line-37)">&#160;^s&#160;</text><text class="terminal-2359095086-r2" x="48.8" y="922.8" textLength="183" clip-path="url(#terminal-2359095086-line-37)">Use&#160;sample&#160;url&#160;</text><text class="terminal-2359095086-r11" x="231.8" y="922.8" textLength="48.8" clip-path="url(#terminal-2359095086-line-37)">&#160;^q&#160;</text><text class="terminal-2359095086-r2" x="280.6" y="922.8" textLength="61" clip-path="url(#terminal-2359095086-line-37)">Quit&#160;</text><text class="terminal-2359095086-r12" x="1756.8" y="922.8" textLength="12.2" clip-path="url(#terminal-2359095086-line-37)">▏</text><text class="terminal-2359095086-r11" x="1769" y="922.8" textLength="24.4" clip-path="url(#terminal-2359095086-line-37)">^p</text><text class="terminal-2359095086-r2" x="1793.4" y="922.8" textLength="97.6" clip-path="url(#terminal-2359095086-line-37)">&#160;palette</text>
    </g>
    </g>
</svg>
